<svg xmlns="http://www.w3.org/2000/svg" viewBox="0 0 1024 1024"><rect width="1024" height="1024" fill="#17130E"/><rect x="122" y="122" width="780" height="780" fill="none" stroke="#E7D8B5" stroke-width="16"/><g stroke="#E7D8B5" stroke-width="7" stroke-linejoin="round" stroke-linecap="round" fill="none" opacity="0.22"><line x1="512.0" y1="180.0" x2="790.9" y2="341.0"/><line x1="790.9" y1="341.0" x2="790.9" y2="663.0"/><line x1="790.9" y1="663.0" x2="512.0" y2="824.0"/><line x1="512.0" y1="824.0" x2="233.1" y2="663.0"/><line x1="233.1" y1="663.0" x2="233.1" y2="341.0"/><line x1="233.1" y1="341.0" x2="512.0" y2="180.0"/><line x1="512.0" y1="308.8" x2="344.7" y2="598.6"/><line x1="344.7" y1="598.6" x2="679.3" y2="598.6"/><line x1="679.3" y1="598.6" x2="512.0" y2="308.8"/><line x1="512.0" y1="308.8" x2="512.0" y2="180.0"/><line x1="344.7" y1="598.6" x2="233.1" y2="663.0"/><line x1="679.3" y1="598.6" x2="790.9" y2="663.0"/><line x1="512.0" y1="308.8" x2="233.1" y2="341.0"/><line x1="512.0" y1="308.8" x2="790.9" y2="341.0"/><line x1="344.7" y1="598.6" x2="233.1" y2="341.0"/><line x1="344.7" y1="598.6" x2="512.0" y2="824.0"/><line x1="679.3" y1="598.6" x2="512.0" y2="824.0"/><line x1="679.3" y1="598.6" x2="790.9" y2="341.0"/></g><path transform="translate(176.3 662.0) scale(0.22070 -0.22070)" d="M1220 399 1210 0H58V46H98Q185 46 218.5 68.0Q252 90 261.5 136.5Q271 183 271 353V1018Q271 1180 261.5 1227.0Q252 1274 221.5 1292.0Q191 1310 88 1310H58V1356H709V1310H649Q549 1310 518.0 1293.5Q487 1277 476.5 1232.0Q466 1187 466 1018V308Q466 161 474.0 124.0Q482 87 517.5 66.5Q553 46 670 46H773Q898 46 958.5 68.0Q1019 90 1073.5 164.0Q1128 238 1173 399Z" fill="#E7D8B5"/><path transform="translate(419.3 662.0) scale(0.22070 -0.22070)" d="M1413 -33H1368L955 1085L594 -33H546L219 1023Q175 1167 155.5 1214.5Q136 1262 104.5 1284.5Q73 1307 0 1310V1356H509V1310Q417 1304 391.0 1283.5Q365 1263 365 1226Q365 1193 407 1057L649 267L1003 1356H1059L1457 267L1664 987Q1705 1133 1705 1178Q1705 1310 1564 1310V1356H1934V1310Q1852 1304 1812.0 1249.5Q1772 1195 1711 988Z" fill="#E7D8B5"/></svg>